WWE Friday Night Smackdown 2011.11.18 HDTV x264-lokisteff

General
Complete name : D:\WWE Friday Night Smackdown 2011.11.18 HDTV x264-lokisteff -=MTR=- Exclusive
Format : MPEG-4
Format profile : Base Media / Version 2
Codec ID : mp42
File size : 527 MiB
Duration : 1h 22mn
Overall bit rate : 898 Kbps
Encoded date : UTC 2011-11-19 07:30:49
Tagged date : UTC 2011-11-19 07:31:15
Writing application : mp4creator 1.4.4

Video
ID : 1
Format : AVC
Format/Info : Advanced Video Codec
Format profile : Baseline@L1.3
Format settings, CABAC : No
Format settings, ReFrames : 2 frames
Codec ID : avc1
Codec ID/Info : Advanced Video Coding
Duration : 1h 22mn
Bit rate mode : Variable
Bit rate : 770 Kbps
Width : 320 pixels
Height : 240 pixels
Display aspect ratio : 4:3
Frame rate mode : Constant
Frame rate : 25.000 fps
Color space : YUV
Chroma subsampling : 4:2:0
Bit depth : 8 bits
Scan type : Progressive
Bits/(Pixel*Frame) : 0.401
Stream size : 452 MiB (86%)
Language : English
Encoded date : UTC 2011-11-19 07:30:49
Tagged date : UTC 2011-11-19 07:31:10
Material_Duration : 4925760
Material_StreamSize : 474095256
Material_FrameCount : 123144

Audio
ID : 2
Format : AAC
Format/Info : Advanced Audio Codec
Format profile : LC
Codec ID : 40
Duration : 1h 22mn
Bit rate mode : Variable
Bit rate : 126 Kbps
Maximum bit rate : 152 Kbps
Channel(s) : 2 channels
Channel positions : Front: L R
Sampling rate : 44.1 KHz
Compression mode : Lossy
Stream size : 73.7 MiB (14%)
Language : English
Encoded date : UTC 2011-11-19 07:31:13
Tagged date : UTC 2011-11-19 07:31:15
Material_Duration : 4924442
Material_StreamSize : 77302352




 
http://picturestack.com/715/108/J34vlcsnap2017tT.png

 
http://picturestack.com/715/108/Cxmvlcsnap2018VX.png

 
http://picturestack.com/715/108/Yy7vlcsnap201yxi.png